<svg width="18" height="18" viewBox="0 0 18 18" fill="none" xmlns="http://www.w3.org/2000/svg">
<circle cx="9" cy="9" r="9" fill="#F2F2F2"/>
<path d="M5.97852 7.34766H7.47021C7.521 6.56055 8.04785 6.05908 8.8667 6.05908C9.6665 6.05908 10.1997 6.54785 10.1997 7.2207C10.1997 7.84912 9.93311 8.19189 9.146 8.66797C8.27002 9.18213 7.90186 9.75342 7.95898 10.6929L7.96533 11.1436H9.43799V10.7754C9.43799 10.1406 9.67285 9.81055 10.5044 9.32812C11.3677 8.81396 11.8501 8.13477 11.8501 7.16357C11.8501 5.76709 10.6885 4.76416 8.94922 4.76416C7.06396 4.76416 6.0293 5.85596 5.97852 7.34766ZM8.7207 14.127C9.23486 14.127 9.64111 13.7271 9.64111 13.2256C9.64111 12.7241 9.23486 12.3306 8.7207 12.3306C8.20654 12.3306 7.79395 12.7241 7.79395 13.2256C7.79395 13.7271 8.20654 14.127 8.7207 14.127Z" fill="#A6A6A6"/>
</svg>
