<svg width="55" height="47" viewBox="0 0 55 47" fill="none" xmlns="http://www.w3.org/2000/svg">
<path d="M53.3534 21.65L54.0418 19.4963L51.7643 19.5661C51.572 19.5661 50.1734 19.5273 48.8164 18.5657C48.9176 18.5754 49.0187 18.589 49.1219 18.589C50.5185 18.589 51.8695 17.767 52.411 16.5922L53.3911 14.4694C52.1631 14.485 51.0402 14.3338 51.0402 14.3338C51.0303 14.3318 50.1455 14.2213 49.1219 13.1997C48.3879 12.4669 47.4793 12.0792 46.4953 12.0792C46.0648 12.0792 45.6799 12.1548 45.3486 12.2576C45.4002 12.085 45.4497 11.9105 45.4776 11.7302C45.791 9.74329 44.4817 8.22728 44.4817 8.22928L42.7696 6.15686L41.7083 8.59177C41.7044 8.59955 41.4364 9.16945 40.9564 9.44863C40.8116 8.7333 40.4565 7.92877 39.6967 7.15912C38.2643 5.70904 36.5205 5.49395 35.608 5.49395C35.1854 5.49395 34.8839 5.53851 34.8105 5.55017L32.7432 5.94755C32.8623 5.49585 33.1162 4.71075 33.5804 4.0031L34.7212 2.26618L31.8505 2.58601L30.936 0.688214L29.1664 1.57995L27.5297 0L25.8971 1.57995L24.1215 0.688214L23.2089 2.58601L20.3403 2.26618L21.4831 4.0031C21.9473 4.71075 22.2012 5.49395 22.3182 5.94556L20.3464 5.56562L20.2788 5.55396C20.1796 5.53851 19.8801 5.49395 19.4555 5.49395C18.543 5.49395 16.7992 5.71104 15.3708 7.15912C14.6089 7.92678 14.2539 8.7333 14.1071 9.44863C13.631 9.17334 13.3651 8.6111 13.3651 8.6111L12.3018 6.16273L10.5619 8.24861C10.3497 8.51811 9.30028 9.94287 9.58582 11.7342C9.61569 11.9125 9.66333 12.087 9.71488 12.2595C9.3856 12.1567 9.00058 12.0812 8.57017 12.0812C7.58624 12.0812 6.67758 12.4689 5.94161 13.2017C4.92185 14.2194 4.04111 14.3338 4.04902 14.3338C4.04902 14.3338 3.11849 14.4967 1.67828 14.4714L2.65244 16.5942C3.19395 17.7709 4.54699 18.5908 5.94161 18.5908C6.04675 18.5908 6.14788 18.5773 6.25107 18.5676C4.89803 19.5291 3.49951 19.5679 3.33091 19.5699L1.00977 19.4963L1.71206 21.648C2.06515 22.7569 3.2455 24.5947 5.50709 24.7924C5.26109 25.8004 4.71558 26.9286 3.51737 27.4152L1.78947 28.1112L2.73171 29.7145C3.26336 30.5791 4.51126 31.591 6.28875 31.591C6.67357 31.589 7.04454 31.5522 7.40173 31.4786C7.49291 31.874 7.60801 32.2694 7.74292 32.6611C8.27262 34.2002 7.81624 35.2743 7.81038 35.2859L6.95726 37.0325L8.86176 37.523C8.88558 37.5308 9.46087 37.6838 10.181 37.6838C10.5084 37.6838 10.8199 37.651 11.1135 37.5831C11.3357 37.5326 11.5479 37.4648 11.7522 37.3835C11.9982 37.8157 12.2978 38.2092 12.647 38.562C13.867 39.7853 15.5949 40.4056 17.7852 40.4056H17.7931L19.3564 40.3863L16.1267 41.6968L18.5786 42.8541C19.4694 43.2786 20.5269 43.7807 21.602 44.1646L21.2965 44.9827L22.1416 45.3587C22.2171 45.3917 23.8418 46.1031 26.5439 46.2543C26.5439 46.2543 27.1965 46.2834 27.5555 46.2834C27.9147 46.2834 28.5594 46.2524 28.5594 46.2524C31.2435 46.0974 32.8564 45.3935 32.9318 45.3587L33.7788 44.9806L33.4693 44.1606C34.5764 43.7651 35.6715 43.2437 36.5245 42.8366L38.9309 41.6949L35.7111 40.3824L37.2804 40.4018C39.4725 40.4018 41.2024 39.7814 42.4205 38.5562C42.7677 38.2054 43.0672 37.8119 43.3153 37.3796C43.5196 37.461 43.7338 37.5288 43.9559 37.5792C44.2475 37.6471 44.559 37.68 44.8864 37.68C45.5946 37.68 46.1759 37.5269 46.1918 37.523L48.1042 37.0286L47.2709 35.3149C47.2512 35.2704 46.7949 34.1984 47.3246 32.6571C47.4595 32.2637 47.5724 31.8681 47.6638 31.4747C48.0229 31.5484 48.3978 31.5871 48.7847 31.5871C51.0482 31.5871 52.1334 30.0304 52.3437 29.6931L53.2761 28.1074L51.5482 27.4134C50.3479 26.9268 49.8044 25.7965 49.5604 24.7905C51.7902 24.6044 52.9884 22.7666 53.3534 21.65ZM22.469 6.6881L22.4452 6.69387L22.4649 6.66866L22.469 6.6881Z" fill="white"/>
<path d="M27.5318 6.59297C25.7027 6.59496 24.3319 7.18042 24.0323 7.86863L27.5318 9.21785L31.0313 7.86863C30.7338 7.18042 29.3629 6.59496 27.5318 6.59297Z" fill="white"/>
<path d="M27.5674 42.3111H27.5634H27.5336H27.5H27.498C26.389 42.3189 24.8634 42.0959 24.1274 41.8866L23.2427 44.2265C23.8259 44.43 25.8018 44.8177 27.5336 44.8177C29.2615 44.8177 31.2395 44.4281 31.8208 44.2265L30.938 41.8866C30.1999 42.0979 28.6763 42.3189 27.5674 42.3111Z" fill="white"/>
<path d="M34.263 39.9851C33.6043 40.3495 32.1344 40.8961 31.2793 41.1501L31.9974 43.0828C33.3207 42.73 34.4118 42.3171 35.3144 41.8751L33.8245 41.3905L34.263 39.9851Z" fill="white"/>
<path d="M20.8025 39.9851L21.243 41.3905L19.7511 41.8751C20.6518 42.3171 21.7488 42.73 23.066 43.0828L23.7842 41.1501C22.9332 40.8961 21.4611 40.3476 20.8025 39.9851Z" fill="white"/>
<path d="M27.5322 4.35606C28.9109 4.35606 30.2639 4.67779 31.3034 5.24391C31.3987 4.93175 31.5315 4.5537 31.7121 4.15831L31.3193 4.20475L30.9066 4.24742L30.732 3.88103L30.2064 2.79544L29.2482 3.28402L28.8752 3.4701L28.5776 3.18315L27.5361 2.17509L26.4966 3.18315L26.1989 3.4701L25.826 3.28402L24.8619 2.79544L24.3422 3.88103L24.1635 4.24742L23.7509 4.20475L23.3582 4.15831C23.5387 4.55569 23.6697 4.93175 23.7668 5.24391C24.8083 4.67779 26.1574 4.35606 27.5322 4.35606Z" fill="white"/>
<path d="M48.5823 16.9025C48.7608 16.9626 48.9433 16.9897 49.1238 16.9897C49.9034 16.9897 50.6574 16.4973 50.9172 15.9333C50.9172 15.9333 49.4869 15.8479 47.9494 14.3223C47.4594 13.828 46.9416 13.6806 46.4972 13.6806C45.8069 13.6806 45.2891 14.0373 45.2891 14.0373C47.1459 15.0028 47.5248 16.5536 48.5823 16.9025Z" fill="white"/>
<path d="M5.93952 16.9897C6.12002 16.9897 6.30258 16.9626 6.47712 16.9025C7.53856 16.5536 7.91938 15.0028 9.77624 14.0373C9.77624 14.0373 9.2565 13.6806 8.57003 13.6806C8.1238 13.6806 7.60592 13.828 7.11391 14.3223C5.57842 15.8479 4.14807 15.9333 4.14807 15.9333C4.40403 16.4973 5.15982 16.9897 5.93952 16.9897Z" fill="white"/>
<path d="M49.0862 23.2047C49.118 23.2066 49.1458 23.2066 49.1794 23.2066C51.1257 23.2066 51.7862 21.1692 51.7862 21.1692H51.7485C51.3914 21.1692 48.497 21.0878 46.4517 18.5463C45.1047 16.8753 44.0017 15.4058 41.8214 14.8281L41.6071 14.7913L41.5596 14.5781C41.5 14.2523 41.7281 13.948 42.246 13.6185C45.2535 11.6934 43.2121 9.2392 43.2121 9.2392C43.2121 9.2392 42.3531 11.203 40.4307 11.203C40.3851 11.203 40.3356 11.2011 40.2879 11.2011C40.0697 11.1895 39.8594 11.1817 39.6472 11.1371L39.292 11.0692C39.292 11.0692 39.8396 9.61339 38.5183 8.2758C37.5224 7.26575 36.3102 7.09512 35.61 7.09512C35.2569 7.09512 35.0327 7.13977 35.0327 7.13977C35.6973 7.98885 36.1774 9.39628 35.4096 10.2647C34.747 11.0111 33.1282 11.0479 33.1282 12.1607C33.1282 12.6317 33.5785 13.1823 34.388 13.6766C36.8222 15.1751 39.2384 17.1622 40.2422 19.8257C41.4981 23.1486 40.0835 25.3526 38.064 26.6166C38.064 26.6166 38.6969 27.1865 39.6154 27.2583C39.8019 27.2757 39.9843 27.2835 40.155 27.2835C42.0933 27.2835 43.095 26.3956 43.095 26.3956C43.095 26.3956 42.9304 27.6227 41.9207 28.7625C40.9902 29.8152 39.7681 30.4337 37.9053 30.4607C37.9053 30.4607 37.8458 31.3061 38.671 32.0368C39.1989 32.4982 40.4188 32.6495 40.4188 32.6495C40.4188 32.6495 38.1354 33.101 37.8835 36.3967C37.7466 38.1821 37.2803 38.8025 37.2803 38.8025H37.322C42.6209 38.8025 42.4839 34.3612 42.4839 34.3612C42.4839 34.3612 42.853 35.6756 44.331 36.0187C44.5095 36.0652 44.6999 36.0827 44.8825 36.0827C45.3586 36.0827 45.7712 35.9741 45.7712 35.9741C45.7712 35.9741 44.9975 34.3787 45.7653 32.1473C46.4021 30.296 46.2989 28.9235 46.2989 28.9235C46.2989 28.9235 47.0132 29.9781 48.7828 29.9879H48.8005C50.2746 29.9879 50.9173 28.8964 50.9173 28.8964C47.3841 27.4638 47.7333 22.8384 47.7333 22.8384C47.7333 22.8384 48.1916 23.1717 49.0862 23.2047ZM48.0229 28.0356C46.5866 27.3436 45.678 25.5058 45.4578 24.8428C45.2198 28.4873 43.3986 31.0172 41.2699 33.452C40.1649 34.714 39.78 35.9411 39.78 35.9411C39.78 35.9411 39.9923 34.5512 40.9485 33.419C42.9344 31.0869 44.8209 28.1849 44.9619 24.8293C45.059 22.4874 44.442 20.5876 43.4799 19.0232C44.0175 20.6535 43.9422 22.6502 42.115 24.5132C42.115 24.5132 45.7514 20.2543 40.6669 15.8885C38.6314 14.2271 36.4055 13.2017 35.259 12.4747C39.4011 13.7949 41.4227 12.3409 41.4227 12.3409C40.0994 13.4615 38.3873 13.442 37.3261 13.2811C37.6137 13.4188 37.9132 13.5622 38.2366 13.7309C41.7281 15.5841 44.8667 18.6335 45.4022 22.8577V22.8248C46.2156 26.9713 48.0229 28.0356 48.0229 28.0356Z" fill="white"/>
<path d="M14.6448 32.6495C14.6448 32.6495 15.8649 32.5002 16.3926 32.0368C17.2158 31.3061 17.1583 30.4607 17.1583 30.4607C15.2935 30.4356 14.0735 29.8152 13.137 28.7646C12.1352 27.6247 11.9686 26.3976 11.9686 26.3976C11.9686 26.3976 12.9704 27.2853 14.9066 27.2853C15.0812 27.2853 15.2618 27.2776 15.4483 27.2602C16.3667 27.1885 17.0016 26.6185 17.0016 26.6185C14.9821 25.3546 13.5656 23.1486 14.8193 19.8257C15.8252 17.1641 18.2395 15.1751 20.6737 13.6766C21.4831 13.1823 21.9334 12.6336 21.9334 12.1607C21.9334 11.0479 20.3166 11.0111 19.654 10.2647C18.8862 9.39628 19.3683 7.98686 20.0309 7.13977C20.0309 7.13977 19.8107 7.09512 19.4556 7.09512C18.7574 7.09512 17.5451 7.26575 16.5493 8.2758C15.2241 9.61339 15.7736 11.0692 15.7736 11.0692L15.4184 11.1371C15.2062 11.1817 14.994 11.1895 14.7777 11.2011C14.7282 11.2011 14.6844 11.203 14.6368 11.203C12.7105 11.203 11.8555 9.24119 11.8555 9.24119C11.8555 9.24119 9.81408 11.6955 12.8198 13.6204C13.3374 13.9499 13.5635 14.2544 13.5041 14.58L13.4564 14.7933L13.2383 14.83C11.062 15.4078 9.957 16.8773 8.61002 18.5483C6.56855 21.0859 3.67808 21.1692 3.31708 21.1692H3.27734C3.27734 21.1692 3.93795 23.2066 5.88413 23.2066C5.91586 23.2066 5.94358 23.2066 5.97736 23.2047C6.87216 23.1737 7.33245 22.8384 7.33245 22.8384C7.33245 22.8384 7.67754 27.4618 4.14832 28.8964C4.14832 28.8964 4.79106 29.9879 6.26505 29.9879H6.28282C8.05445 29.9781 8.7667 28.9235 8.7667 28.9235C8.7667 28.9235 8.66351 30.296 9.29825 32.1473C10.066 34.3787 9.29639 35.9741 9.29639 35.9741C9.29639 35.9741 9.70904 36.0827 10.1831 36.0827C10.3676 36.0827 10.5561 36.0652 10.7327 36.0187C12.2086 35.6756 12.5796 34.3612 12.5796 34.3612C12.5796 34.3612 12.4447 38.8025 17.7436 38.8025H17.7813C17.7813 38.8025 17.3171 38.1821 17.1822 36.3967C16.9282 33.101 14.6448 32.6495 14.6448 32.6495ZM13.7937 33.452C11.6651 31.0172 9.84591 28.4873 9.60586 24.8428C9.38562 25.5039 8.48096 27.3436 7.04475 28.0356C7.04475 28.0356 8.84997 26.9713 9.6614 22.8248V22.8577C10.199 18.6355 13.3355 15.5841 16.8291 13.7309C17.1484 13.5604 17.4519 13.4168 17.7376 13.2811C16.6762 13.442 14.9642 13.4615 13.641 12.3409C13.641 12.3409 15.6626 13.7949 19.8027 12.4747C18.6561 13.2017 16.4322 14.2271 14.3968 15.8885C9.31026 20.2543 12.9486 24.5132 12.9486 24.5132C11.1195 22.6484 11.0461 20.6535 11.5838 19.0232C10.6196 20.5896 10.0045 22.4874 10.1037 24.8293C10.2426 28.1849 12.1293 31.0869 14.1112 33.419C15.0693 34.5492 15.2856 35.9411 15.2856 35.9411C15.2856 35.9411 14.8966 34.714 13.7937 33.452Z" fill="white"/>
<path d="M23.6141 16.4119C23.7014 16.5031 23.7866 16.602 23.868 16.7008C23.8879 16.7241 23.9057 16.7454 23.9255 16.7726C24.0009 16.8714 24.0784 16.9761 24.1517 17.0827C24.1675 17.104 24.1834 17.1293 24.2013 17.1544C24.2906 17.2862 24.3739 17.422 24.4572 17.5616C25.221 18.8508 26.445 19.6203 27.5302 19.6223C28.6174 19.6203 29.8374 18.8508 30.6052 17.5616C30.6904 17.4181 30.7757 17.2786 30.865 17.1486C30.8789 17.1293 30.8929 17.1118 30.9047 17.0924C30.98 16.9819 31.0594 16.8735 31.1428 16.7686C31.1606 16.7454 31.1765 16.726 31.1924 16.7067C31.2777 16.6039 31.3649 16.5031 31.4542 16.4101C31.4701 16.3945 31.482 16.381 31.4959 16.3694C31.8847 15.9797 32.349 15.6831 32.956 15.5183L32.6862 15.3652H32.6702L31.5951 14.7545L30.4902 14.1361L27.5381 15.7064L27.5302 15.7005L27.5242 15.7064L24.5703 14.1361L23.4673 14.7526L22.39 15.3632H22.3782L22.1044 15.5163C22.7133 15.6812 23.1757 15.9739 23.5664 16.3635C23.5843 16.3791 23.5962 16.3965 23.6141 16.4119ZM26.336 16.286H27.5857H28.8335V17.1235C28.5399 16.7726 27.9686 16.8443 27.9686 16.8443V18.052C27.9686 18.052 27.9905 18.6453 28.2027 18.9031H27.5857H26.9668C27.1829 18.6471 27.2029 18.052 27.2029 18.052V16.8443C27.2029 16.8443 26.6335 16.7726 26.336 17.1235V16.286Z" fill="white"/>
<path d="M27.2756 14.6613V9.75865L24.0815 8.70015L24.9248 13.4516L27.2756 14.6613ZM26.5891 10.9624V11.7495L26.4344 11.6797C26.4264 11.6739 26.2003 11.6236 25.8036 11.3173C25.1488 10.821 25.137 10.3634 25.137 10.3634L26.5891 10.9624Z" fill="white"/>
<path d="M30.1405 13.4516L30.9798 8.70015L27.7877 9.75865V14.6613L30.1405 13.4516ZM28.4741 10.9624L29.9262 10.3654C29.9262 10.3654 29.9144 10.8229 29.2577 11.3192C28.8629 11.6254 28.6348 11.6759 28.6269 11.6817L28.4721 11.7514V10.9624H28.4741Z" fill="white"/>
<path d="M22.7582 26.0274C23.0696 26.1379 23.4466 26.1612 23.639 26.1612C23.647 26.1379 23.6569 26.1089 23.6669 26.0739C23.6847 26.0178 23.7005 25.9634 23.7125 25.9014C23.766 25.63 23.7859 25.3218 23.7898 25.124C23.6589 25.0445 23.4744 24.903 23.3712 24.6917C23.2522 24.4474 23.0836 24.335 22.8355 24.335C22.5142 24.335 22.1691 24.5231 22.0222 24.6122C21.9052 25.2888 22.415 25.9033 22.7582 26.0274Z" fill="white"/>
<path d="M29.8233 23.4254C29.2301 24.0554 28.0695 25.1527 28.0119 25.2089L27.9425 25.2786L24.2745 25.2225C24.2725 25.5773 24.2129 25.8796 24.1554 26.1006C24.1456 26.1375 24.1356 26.1763 24.1257 26.2151L28.4901 26.9808C28.9444 26.6707 30.1943 25.7788 30.6783 25.43C30.3251 24.9259 30.2915 24.3288 30.3709 23.9081C30.1407 23.7627 29.9641 23.5999 29.8233 23.4254Z" fill="white"/>
<path d="M30.3206 19.1144C29.4755 19.9343 28.6642 20.2368 27.9401 20.3066C27.8091 20.3201 27.6763 20.3279 27.5414 20.3279H27.5314H27.5234C27.3885 20.3279 27.2537 20.3201 27.1228 20.3066C26.9958 20.2949 26.8629 20.2756 26.7299 20.2465C26.6823 20.4307 26.6227 20.8164 26.7935 21.1809C26.9463 21.5124 27.2577 21.7586 27.712 21.9214L27.8647 21.9795L27.8667 22.1405C27.8667 22.189 27.9024 23.2319 29.0669 23.5207C29.2574 23.3288 29.4299 23.1562 29.557 23.0128C29.3189 22.4661 29.4438 21.9079 29.789 21.6345C29.7731 21.6927 29.6225 23.0613 30.7452 23.5691L30.9297 23.6544L30.8742 23.8464C30.8563 23.9045 30.4814 25.2286 31.8403 25.721L32.0804 25.8102L31.9733 26.0389C31.9495 26.0893 31.4158 27.2913 32.6715 27.9736H35.3953V25.8605C34.4273 25.7442 34.0166 24.9844 33.9115 24.4455C33.461 24.3698 33.112 24.1798 32.8739 23.8697C32.3026 23.135 32.7946 22.4623 32.8005 22.4254C32.7985 22.4313 32.8005 23.1485 33.2528 23.5905C33.4769 23.8037 33.7429 23.9685 34.1455 24.0054L34.3439 24.0229L34.3618 24.2205C34.3658 24.2632 34.4748 25.2325 35.3973 25.3856L35.3953 21.0703C35.3953 20.4016 35.5957 19.7289 35.8358 19.1085H30.3206V19.1144Z" fill="white"/>
<path d="M22.9907 21.0914L22.9174 23.8403L23.2367 23.8869L24.0183 21.2504L23.6215 20.4401L22.9907 21.0914Z" fill="white"/>
<path d="M31.6086 33.6981C31.6325 33.6981 31.6602 33.702 31.6861 33.7079C32.172 33.8435 32.2951 35.5573 33.1481 35.7105C33.2314 35.7279 33.3087 35.7318 33.3763 35.7318C33.6223 35.7318 33.769 35.629 33.9277 35.4467C33.9277 35.4467 33.4992 34.7876 33.1779 34.3437C32.7513 33.7621 32.4201 33.0585 31.6264 33.0585C31.6086 33.0585 31.5848 33.0585 31.565 33.0604C31.3031 33.0739 31.1425 33.198 31.1425 33.198C30.821 33.0002 30.5214 32.9324 30.2498 32.9324C29.7518 32.9324 29.3649 33.1553 29.1725 33.1553H29.1645L27.391 32.9849C27.1133 32.9596 26.8951 32.6862 26.8157 32.5797C26.7958 32.5506 26.7859 32.5331 26.7859 32.5331C26.7859 32.4865 26.7859 32.4382 26.7819 32.3954C26.7224 30.9783 25.5997 30.3716 25.2008 30.3619C25.2008 30.3619 25.2484 30.0924 25.1394 29.9897L24.7485 30.453L23.465 29.823L24.3795 30.8678L23.6038 31.7189C23.5066 31.8158 23.5186 31.9476 23.5582 32.0019L23.8935 32.2908L24.318 32.0387C24.3398 32.0232 24.3775 32.0194 24.4251 32.0194C24.5422 32.0194 24.7187 32.0484 24.8774 32.0484C25.05 32.0484 25.2008 32.0116 25.2187 31.8527C25.1651 32.3781 24.6672 33.2911 24.9945 34.0083L25.2366 34.5492L23.6693 34.3282L22.9353 35.5398C22.7092 35.9431 22.6734 36.3792 22.8916 36.6157L23.1655 36.9512C23.1655 36.9512 23.5503 36.5518 23.6376 36.29L23.5126 36.1563C23.4074 36.0439 23.4134 35.9431 23.477 35.8209L23.9371 35.0746L25.7881 35.501L25.8852 35.3382C26.0102 35.1347 26.1908 35.0727 26.3892 35.0727C26.4704 35.0727 26.5538 35.0824 26.6411 35.0959C26.9843 35.1618 27.5497 35.251 28.1151 35.251C28.736 35.251 29.3511 35.1425 29.6784 34.7837C30.3488 35.755 31.7078 35.9101 31.6007 36.4024L31.2436 38.0658C31.4797 38.0561 31.7078 38.0406 31.9241 38.0115L32.2633 36.2803C32.301 36.0923 32.3367 35.8384 32.3367 35.8384C32.2058 35.7085 31.8883 35.4332 31.7098 35.0998C31.4697 34.65 31.6007 34.4155 31.3765 33.83C31.3845 33.8339 31.4519 33.6981 31.6086 33.6981ZM24.6849 31.2672C24.5938 31.2654 24.5283 31.1897 24.5323 31.1004C24.5403 31.0152 24.6136 30.9474 24.7029 30.9551C24.7942 30.9589 24.8596 31.0365 24.8557 31.1218C24.8477 31.2071 24.7723 31.2729 24.6849 31.2672Z" fill="white"/>
<path d="M22.1574 35.2722C22.1574 35.2722 22.7704 35.026 22.826 34.8497L22.7447 34.6499C22.6871 34.52 22.6951 34.3785 22.8062 34.301L23.4687 33.8531L24.5757 34.0606C24.5757 34.0606 24.3753 33.8164 24.3952 33.4887L23.3399 33.2697L22.3439 33.8628C21.9174 34.175 21.8857 34.6847 22.0265 34.9873L22.1574 35.2722Z" fill="white"/>
<path d="M29.9814 38.0908C30.1798 38.0831 30.398 38.0791 30.6381 38.0791C30.6381 38.0791 31.2075 36.4528 31.2392 36.4004C30.9198 36.2628 30.2572 35.9197 30.0013 35.7626C30.17 36.0089 30.5805 36.2918 30.4992 36.509L29.9814 38.0908Z" fill="white"/>
<path d="M35.4015 28.4448H19.6637V34.2295C19.6637 36.5945 21.4154 38.0756 24.0003 38.0756C26.1608 38.0756 26.7301 38.1569 27.5337 38.9363C28.0871 38.3974 28.5454 38.1957 29.4857 38.1201L29.5076 38.0309L30.0035 36.5324C29.9758 36.4995 29.1643 35.598 29.1643 35.598C28.843 35.7027 28.5731 35.7202 28.1189 35.7202C27.6527 35.7202 27.1269 35.6679 26.5575 35.5631C26.5 35.5496 26.4465 35.5457 26.3928 35.5457C26.3234 35.5457 26.3175 35.5515 26.2996 35.5845L26.2004 35.7434L26.0199 36.0343L25.6807 35.9586L24.171 35.6117L23.9647 35.945L23.9964 35.98L24.1808 36.1777L24.0996 36.4356C23.9885 36.7728 23.6274 37.1663 23.5183 37.275L23.1414 37.6704L22.7982 37.2459L22.5402 36.9298C22.2685 36.6333 22.205 36.1777 22.3578 35.7008C22.3538 35.7046 22.3479 35.7067 22.3418 35.7067L21.9153 35.8792L21.7229 35.472L21.588 35.1832C21.3559 34.6753 21.4412 33.9328 22.0661 33.485L23.2822 32.8143L24.4389 33.0372C24.4666 32.9287 24.5083 32.541 24.5419 32.4421C24.5201 32.4401 24.4983 32.4343 24.4765 32.4343L23.8099 32.6766L23.1671 32.2423C23.1671 32.2423 22.9153 32.0059 23.1433 31.7694L23.7662 30.8486L22.1892 28.9138L24.6134 29.887L24.774 29.6912L25.1014 29.3093L25.4724 29.6544C25.5776 29.7532 25.6371 29.8754 25.6667 29.9975C26.3354 30.2515 27.5316 31.0017 27.6367 32.221L27.2618 32.3684V32.3781C27.3471 32.4769 27.4185 32.5176 27.4404 32.5215L29.1703 32.6883C29.2139 32.6806 29.2695 32.6611 29.331 32.6436C29.5452 32.572 29.8686 32.4692 30.2515 32.4692C30.563 32.4692 30.8645 32.539 31.154 32.6709C31.2612 32.6321 31.3921 32.603 31.543 32.5933L31.6262 32.5913C32.5527 32.5913 33.013 33.2679 33.382 33.8068C33.4435 33.8998 33.505 33.9891 33.5685 34.0762C33.8918 34.5222 34.3144 35.1754 34.3322 35.2027L34.5227 35.4934L34.2886 35.759C34.1081 35.9625 33.8383 36.2009 33.3741 36.2009C33.2788 36.2009 33.1736 36.1912 33.0606 36.1699C32.9613 36.1525 32.8722 36.1234 32.7848 36.0885C32.7709 36.1777 32.7531 36.2844 32.7352 36.3755L32.4316 37.9224C34.247 37.4862 35.3996 36.1467 35.3996 34.2314L35.4015 28.4448Z" fill="#FFDD2D"/>
<path d="M19.6638 27.9796H31.9021C31.291 27.3632 31.2989 26.582 31.4557 26.074C31.2771 25.9907 31.1303 25.8898 30.9994 25.7813C30.5212 26.1264 29.0611 27.1654 28.6803 27.4252L28.599 27.4794L23.796 26.6303H23.6988C23.5838 26.6303 23.4151 26.6265 23.2307 26.6052C23.179 26.8165 22.9926 26.9619 22.7783 26.9619C22.7545 26.9619 22.7267 26.96 22.701 26.9541C22.576 26.9327 22.4668 26.8708 22.3935 26.768C22.318 26.6672 22.2883 26.547 22.3101 26.423L22.328 26.3222C21.832 25.9809 21.3757 25.2191 21.5781 24.4166L21.5979 24.3312L21.6673 24.2828C21.6772 24.275 21.7606 24.2208 21.8836 24.1509L21.5345 24.0986C21.4035 24.0754 21.3162 23.957 21.3361 23.8311C21.3579 23.7031 21.4809 23.612 21.6098 23.6373L22.4411 23.7652L22.5165 20.9039L23.7543 19.6243L24.5261 21.2121L23.7108 23.9648L24.4448 24.0772C24.5737 24.0967 24.663 24.2149 24.6431 24.3448C24.6232 24.4592 24.5241 24.5386 24.4071 24.5386C24.3951 24.5386 24.3812 24.5386 24.3694 24.5368L23.7722 24.4417C23.7802 24.4592 23.7921 24.4689 23.8 24.4883C23.8635 24.6161 24.0043 24.7093 24.0877 24.748L27.7498 24.8042C27.9046 24.6569 28.2894 24.2885 28.6842 23.899C27.7835 23.5655 27.4563 22.8056 27.4007 22.3016C26.8967 22.0921 26.5496 21.7782 26.3572 21.3692C26.123 20.8632 26.2065 20.3573 26.2679 20.1109C25.7799 19.9365 25.2661 19.6186 24.7423 19.1107H19.2273C19.4633 19.731 19.6638 20.4036 19.6638 21.0725V27.9796Z" fill="#FFDD2D"/>
<path d="M24.7045 30.955C24.6151 30.9472 24.5397 31.0151 24.5338 31.1004C24.5279 31.1895 24.5952 31.2652 24.6866 31.2671C24.7739 31.2749 24.8512 31.2089 24.8591 31.1218C24.8591 31.0364 24.7956 30.957 24.7045 30.955Z" fill="black"/>
<path d="M35.3796 41.4445L34.473 41.1052L34.7229 40.1902L34.9987 39.1919C34.9987 39.1919 33.3918 40.0428 31.1281 40.6827C30.4854 40.8629 29.9994 40.9443 29.9994 40.9443V41.6228C29.9994 41.6228 28.7891 41.8284 27.5653 41.8284H27.5513H27.5335H27.5097H27.4957C26.2717 41.8284 25.0617 41.6228 25.0617 41.6228V40.9443C25.0617 40.9443 24.5735 40.8629 23.9329 40.6827C21.6692 40.0428 20.0643 39.1919 20.0643 39.1919L20.3361 40.1902L20.592 41.1052L19.6834 41.4445L18.6755 41.8128C19.8322 42.3576 21.4332 43.1524 22.8992 43.5439L22.554 44.4666C22.554 44.4666 24.4129 45.2944 27.5097 45.3022V45.3042H27.5196H27.5335H27.5453H27.5533V45.3022C30.654 45.2944 32.5109 44.4666 32.5109 44.4666L32.1637 43.5439C33.6298 43.1524 35.2347 42.3576 36.3854 41.8128L35.3796 41.4445ZM19.7508 41.8748L21.2427 41.3902L20.8023 39.9848C21.4589 40.3492 22.9329 40.8959 23.7859 41.1498L23.0658 43.0826C21.7486 42.7279 20.6515 42.3149 19.7508 41.8748ZM27.5335 44.8176C25.8016 44.8176 23.8236 44.4279 23.2424 44.2263L24.1272 41.8865C24.8612 42.0958 26.3888 42.3188 27.4977 42.311H27.4998H27.5335H27.5632H27.5672C28.6762 42.3188 30.1998 42.0958 30.9377 41.8865L31.8206 44.2263C31.2392 44.4299 29.2633 44.8176 27.5335 44.8176ZM31.9971 43.0826L31.279 41.1498C32.134 40.8959 33.604 40.3492 34.2626 39.9848L33.8243 41.3902L35.3141 41.8748C34.4114 42.3149 33.3203 42.7279 31.9971 43.0826Z" fill="black"/>
<path d="M27.5315 4.9221C29.3766 4.9221 30.8526 5.51912 31.6678 6.1569C31.6678 6.1569 31.91 4.73213 32.7372 3.47401L31.2513 3.63877L30.4736 2.02393L28.9798 2.77603L27.5315 1.37648L26.0873 2.77603L24.5916 2.02393L23.8159 3.63877L22.33 3.47401C23.1572 4.73213 23.3993 6.1569 23.3993 6.1569C24.2166 5.51912 25.6886 4.9221 27.5315 4.9221ZM23.7484 4.20478L24.161 4.24744L24.3396 3.88106L24.8594 2.79547L25.8235 3.28205L26.1965 3.46813L26.4941 3.18129L27.5336 2.17323L28.5751 3.18129L28.8727 3.46813L29.2456 3.28205L30.2038 2.79547L30.7295 3.88106L30.9042 4.24744L31.3168 4.20478L31.7095 4.15824C31.529 4.55572 31.3962 4.93177 31.3009 5.24383C30.2613 4.67782 28.9084 4.35598 27.5297 4.35598C26.1567 4.35598 24.8057 4.67782 23.7624 5.24383C23.6651 4.93177 23.5342 4.55372 23.3536 4.15824L23.7484 4.20478Z" fill="black"/>
<path d="M49.177 23.829C51.5636 23.829 52.3611 21.4561 52.3948 21.3553L52.6607 20.5199L51.766 20.5469H51.762C51.4465 20.5469 48.8141 20.4791 46.9472 18.1606L46.7706 17.9453C45.5506 16.4295 44.394 14.9891 42.3268 14.3319C42.3864 14.2795 42.4717 14.2137 42.5888 14.14C43.6857 13.4344 44.3246 12.5775 44.4853 11.5831C44.7193 10.0864 43.7433 8.89425 43.6996 8.84571L43.0351 8.04317L42.6205 8.99501C42.5928 9.05511 41.8944 10.5788 40.4263 10.5788H40.3172C40.2161 10.573 40.1209 10.569 40.0256 10.5614C40.0771 9.88094 39.9501 8.82826 38.9742 7.84154C37.8017 6.65319 36.3615 6.47488 35.6075 6.47488C35.2049 6.47488 34.937 6.52332 34.9093 6.52721L33.9054 6.72107L34.5243 7.51782C35.0105 8.13237 35.4509 9.26641 34.9291 9.85963C34.7624 10.0476 34.4193 10.2008 34.0899 10.3539C33.4134 10.6583 32.491 11.0809 32.491 12.1588C32.491 12.8566 33.0445 13.5856 34.0483 14.2059C37.02 16.032 38.8532 17.9376 39.6447 20.041C40.8688 23.2765 39.2717 25.122 37.7204 26.0933L37.024 26.5314L37.6331 27.078C37.7144 27.1478 38.4603 27.7895 39.5613 27.8824C39.7696 27.8961 39.9701 27.9077 40.1565 27.9077C40.8628 27.9077 41.464 27.7991 41.952 27.6538C41.8171 27.8845 41.6524 28.119 41.444 28.3555C40.5572 29.3596 39.4662 29.8172 37.8969 29.8405L37.3137 29.8502L37.2681 30.422C37.2621 30.5364 37.2184 31.5968 38.2461 32.4983C38.4027 32.6378 38.5932 32.7522 38.7917 32.8472C38.0953 33.4598 37.3871 34.526 37.2502 36.3541C37.1351 37.8796 36.7622 38.4438 36.7582 38.4497L36.1134 39.4112L37.278 39.4267C39.2023 39.4267 40.6763 38.9072 41.698 37.8796C42.301 37.271 42.6462 36.5847 42.8506 35.976C43.1858 36.2552 43.6184 36.4995 44.1817 36.6294C44.396 36.6778 44.6301 36.705 44.8821 36.705C45.4256 36.705 45.8799 36.5925 45.9315 36.5809L46.6755 36.3871L46.3461 35.7085C46.3223 35.6542 45.7014 34.2934 46.3699 32.3509C46.6576 31.5115 46.8043 30.7594 46.8758 30.1739C47.344 30.4123 47.9708 30.6101 48.7823 30.612C50.6232 30.612 51.4347 29.2685 51.4723 29.2124L51.8354 28.5959L51.1629 28.3245C48.9687 27.4347 48.4828 25.0444 48.3855 23.7495C48.5839 23.7863 48.81 23.8212 49.0659 23.829H49.177ZM50.9169 28.8965C50.9169 28.8965 50.2741 29.9877 48.8001 29.9877H48.7823C47.0127 29.9781 46.2985 28.9235 46.2985 28.9235C46.2985 28.9235 46.4017 30.2961 45.7628 32.1473C44.9951 34.3787 45.7688 35.9741 45.7688 35.9741C45.7688 35.9741 45.3562 36.0827 44.88 36.0827C44.6976 36.0827 44.5071 36.0652 44.3286 36.0186C42.8506 35.6756 42.4817 34.3612 42.4817 34.3612C42.4817 34.3612 42.6184 38.8025 37.3196 38.8025H37.278C37.278 38.8025 37.7442 38.1822 37.883 36.3967C38.135 33.1011 40.4184 32.6494 40.4184 32.6494C40.4184 32.6494 39.2003 32.5002 38.6726 32.0369C37.8474 31.306 37.9049 30.4608 37.9049 30.4608C39.7696 30.4356 40.9898 29.8152 41.9201 28.7626C42.928 27.6228 43.0946 26.3956 43.0946 26.3956C43.0946 26.3956 42.0927 27.2835 40.1545 27.2835C39.9839 27.2835 39.8014 27.2757 39.615 27.2583C38.6984 27.1866 38.0636 26.6166 38.0636 26.6166C40.0811 25.3526 41.4975 23.1466 40.2418 19.8238C39.236 17.1622 36.8197 15.1731 34.3876 13.6746C33.5781 13.1804 33.1278 12.6317 33.1278 12.1588C33.1278 11.046 34.7465 11.0111 35.4111 10.2628C36.177 9.39438 35.6969 7.98497 35.0323 7.13788C35.0323 7.13788 35.2565 7.09323 35.6096 7.09323C36.3098 7.09323 37.522 7.26575 38.5179 8.27391C39.8411 9.61148 39.2916 11.0674 39.2916 11.0674L39.6467 11.1352C39.859 11.1798 40.0692 11.1876 40.2875 11.1972C40.3352 11.1972 40.3826 11.1992 40.4302 11.1992C42.3526 11.1992 43.2116 9.23541 43.2116 9.23541C43.2116 9.23541 45.255 11.6915 42.2475 13.6146C41.7297 13.9442 41.5016 14.2486 41.5611 14.5742L41.6086 14.7874L41.8229 14.8243C44.0032 15.402 45.1062 16.8714 46.4533 18.5425C48.4987 21.084 51.393 21.1654 51.7501 21.1654H51.7878C51.7878 21.1654 51.1272 23.2028 49.181 23.2028C49.1492 23.2028 49.1215 23.2028 49.0878 23.2009C48.193 23.1699 47.7348 22.8345 47.7348 22.8345C47.7348 22.8345 47.3836 27.4619 50.9169 28.8965Z" fill="black"/>
<path d="M44.9855 14.5877C45.8762 15.0509 46.394 15.6713 46.8484 16.2219C47.2947 16.7589 47.7192 17.2765 48.3818 17.4916C48.6178 17.5711 48.8679 17.608 49.1219 17.608C50.1178 17.608 51.1175 17.0128 51.4965 16.1889L51.8774 15.3631L50.9549 15.3088C50.9113 15.3069 49.7249 15.2021 48.4037 13.8821C47.86 13.3411 47.2035 13.0562 46.4952 13.0562C45.6302 13.0562 44.9894 13.4788 44.9181 13.5214L44.069 14.105L44.9855 14.5877ZM46.4972 13.6804C46.9416 13.6804 47.4594 13.8277 47.9493 14.3221C49.4868 15.8477 50.9171 15.933 50.9171 15.933C50.6573 16.4953 49.9035 16.9895 49.1237 16.9895C48.9432 16.9895 48.7627 16.9624 48.5822 16.9023C47.5249 16.5534 47.1459 15.0025 45.287 14.0371C45.287 14.0371 45.8067 13.6804 46.4972 13.6804Z" fill="black"/>
<path d="M45.4023 22.8247V22.8556C44.8667 18.6335 41.7282 15.5842 38.2367 13.7289C37.9132 13.5603 37.6157 13.4169 37.3261 13.2792C38.3894 13.4401 40.1014 13.4595 41.4227 12.339C41.4227 12.339 39.4012 13.7929 35.2589 12.4727C36.4056 13.1997 38.6334 14.2253 40.6669 15.8866C45.7515 20.2522 42.113 24.5113 42.113 24.5113C43.9402 22.6483 44.0156 20.6516 43.4779 19.0213C44.4401 20.5856 45.0551 22.4855 44.9599 24.8272C44.8191 28.1829 42.9325 31.085 40.9465 33.4171C39.9924 34.5491 39.7781 35.9391 39.7781 35.9391C39.7781 35.9391 40.1629 34.712 41.2679 33.45C43.3967 31.0152 45.2157 28.4854 45.4538 24.8408C45.6741 25.5019 46.5808 27.3416 48.0189 28.0337C48.0229 28.0356 46.2157 26.9713 45.4023 22.8247Z" fill="black"/>
<path d="M18.3048 38.4475C18.3027 38.4417 17.9338 37.8775 17.8148 36.352C17.6758 34.5238 16.9696 33.4577 16.2713 32.845C16.4737 32.752 16.6602 32.6376 16.8168 32.4961C17.8425 31.5947 17.7989 30.5343 17.793 30.4198L17.7533 29.8479L17.166 29.8383C15.6008 29.813 14.5077 29.3555 13.6209 28.3533C13.4146 28.1169 13.2479 27.8823 13.113 27.6516C13.6011 27.7969 14.1982 27.9055 14.9064 27.9055C15.0968 27.9055 15.2933 27.8939 15.5016 27.8803C16.6026 27.7872 17.3486 27.1476 17.4319 27.0758L18.0409 26.5292L17.3446 26.091C15.7873 25.1178 14.1962 23.2724 15.4182 20.0387C16.2098 17.9355 18.0409 16.0298 21.0166 14.2037C22.0205 13.5833 22.5701 12.8544 22.5701 12.1565C22.5701 11.0788 21.6495 10.6542 20.9731 10.3518C20.6438 10.1986 20.3006 10.0455 20.1338 9.85742C19.6102 9.26616 20.0525 8.13013 20.5366 7.51558L21.1595 6.71882L20.1518 6.52497C20.122 6.52118 19.8581 6.47264 19.4534 6.47264C18.6996 6.47264 17.2633 6.65104 16.0888 7.8394C15.1108 8.82802 14.9818 9.88075 15.0314 10.5592C14.9362 10.5669 14.8411 10.5709 14.7418 10.5766H14.6347C13.1627 10.5766 12.4663 9.05287 12.4386 8.99277L12.0239 8.04093L11.3533 8.84357C11.3157 8.892 10.3356 10.0862 10.5737 11.5808C10.7325 12.5753 11.3712 13.4322 12.4683 14.1378C12.5874 14.2115 12.6707 14.2773 12.7302 14.3297C10.6649 14.9868 9.51044 16.4292 8.29027 17.9452L8.11377 18.1604C6.249 20.4788 3.61048 20.5467 3.29507 20.5467L2.39636 20.5196L2.67009 21.3552C2.70182 21.4559 3.49734 23.8287 5.88594 23.8287L6.00094 23.8249C6.25291 23.8171 6.4791 23.7842 6.68147 23.7454C6.58218 25.0384 6.09622 27.4287 3.90003 28.3204L3.22956 28.5918L3.59262 29.2083C3.62835 29.2644 4.44173 30.6079 6.28668 30.6079C7.09206 30.6059 7.71889 30.4082 8.18913 30.1698C8.26059 30.7553 8.40732 31.5074 8.69501 32.3468C9.36352 34.2893 8.74069 35.6501 8.71687 35.7044L8.3876 36.383L9.13343 36.5768C9.18302 36.5883 9.64135 36.7009 10.1829 36.7009C10.4368 36.7009 10.671 36.6736 10.8812 36.6253C11.4466 36.4954 11.883 36.2511 12.2144 35.9719C12.4167 36.5806 12.764 37.2669 13.3649 37.8755C14.3887 38.9031 15.8606 39.4225 17.785 39.4225L18.9515 39.4071L18.3048 38.4475ZM17.7413 38.8022C12.4425 38.8022 12.5774 34.3609 12.5774 34.3609C12.5774 34.3609 12.2084 35.6753 10.7304 36.0185C10.5538 36.0649 10.3654 36.0824 10.181 36.0824C9.70481 36.0824 9.29411 35.9739 9.29411 35.9739C9.29411 35.9739 10.064 34.3784 9.29616 32.1471C8.66133 30.2957 8.76442 28.9233 8.76442 28.9233C8.76442 28.9233 8.05227 29.9779 6.28073 29.9876H6.26286C4.78887 29.9876 4.14603 28.8961 4.14603 28.8961C7.6773 27.4635 7.33016 22.8381 7.33016 22.8381C7.33016 22.8381 6.87192 23.1715 5.97517 23.2044C5.94344 23.2064 5.91367 23.2064 5.88194 23.2064C3.9338 23.2064 3.27515 21.1689 3.27515 21.1689H3.31479C3.67394 21.1689 6.56442 21.0876 8.60978 18.5461C9.95677 16.8751 11.0617 15.4076 13.2381 14.8278L13.4563 14.7911L13.5038 14.5779C13.5634 14.2523 13.3372 13.9478 12.8195 13.6182C9.8119 11.6932 11.8553 9.23905 11.8553 9.23905C11.8553 9.23905 12.7103 11.2008 14.6367 11.2008C14.6842 11.2008 14.7279 11.199 14.7775 11.199C14.9938 11.1873 15.208 11.1795 15.4182 11.1349L15.7734 11.0671C15.7734 11.0671 15.2238 9.61119 16.5491 8.27356C17.545 7.26361 18.7572 7.09298 19.4554 7.09298C19.8105 7.09298 20.0307 7.13763 20.0307 7.13763C19.3681 7.98671 18.8881 9.39414 19.6538 10.2625C20.3164 11.009 21.9332 11.0458 21.9332 12.1585C21.9332 12.6296 21.4829 13.1802 20.6735 13.6744C18.2393 15.173 15.8229 17.1619 14.8191 19.8236C13.5654 23.1464 14.9799 25.3504 17.0014 26.6164C17.0014 26.6164 16.3665 27.1864 15.4481 27.258C15.2615 27.2755 15.081 27.2832 14.9064 27.2832C12.9702 27.2832 11.9684 26.3954 11.9684 26.3954C11.9684 26.3954 12.135 27.6225 13.1368 28.7624C14.0733 29.8151 15.2933 30.4354 17.1581 30.4605C17.1581 30.4605 17.2177 31.3058 16.3924 32.0366C15.8627 32.498 14.6446 32.6492 14.6446 32.6492C14.6446 32.6492 16.93 33.1009 17.1799 36.3965C17.3169 38.1819 17.779 38.8022 17.779 38.8022H17.7413Z" fill="black"/>
<path d="M5.93943 17.6101C6.1953 17.6101 6.44531 17.5733 6.68146 17.4939C7.34792 17.2786 7.77052 16.761 8.21685 16.2241C8.67313 15.6736 9.18692 15.0532 10.0777 14.5899L10.9942 14.1091L10.1432 13.5255C10.0718 13.481 9.43293 13.0603 8.56995 13.0603C7.85975 13.0603 7.20119 13.3434 6.65949 13.8862C5.33838 15.2044 4.15403 15.3111 4.11029 15.313L3.18787 15.3653L3.56674 16.193C3.94766 17.0131 4.94545 17.6101 5.93943 17.6101ZM7.11392 14.3243C7.60593 13.83 8.12362 13.6827 8.56995 13.6827C9.25633 13.6827 9.77626 14.0393 9.77626 14.0393C7.9193 15.0067 7.53838 16.5556 6.47704 16.9045C6.30249 16.9646 6.11994 16.9918 5.93943 16.9918C5.15973 16.9918 4.40589 16.4994 4.14798 15.9353C4.14798 15.9333 5.57638 15.848 7.11392 14.3243Z" fill="black"/>
<path d="M10.1036 24.8293C10.0043 22.4874 10.6193 20.5876 11.5834 19.0233C11.0458 20.6535 11.1193 22.6503 12.9484 24.5132C12.9484 24.5132 9.31004 20.2541 14.3966 15.8886C16.432 14.2272 18.6579 13.2016 19.8025 12.4747C15.6624 13.7949 13.6408 12.3409 13.6408 12.3409C14.9619 13.4614 16.6741 13.4421 17.7374 13.2792C17.4497 13.4169 17.1483 13.5603 16.8288 13.7291C13.3333 15.5842 10.1968 18.6335 9.65923 22.8558V22.8228C8.8478 26.9694 7.04248 28.0337 7.04248 28.0337C8.47888 27.3416 9.38345 25.5038 9.60368 24.8408C9.84373 28.4854 11.6628 31.0152 13.7915 33.45C14.8965 34.712 15.2854 35.9391 15.2854 35.9391C15.2854 35.9391 15.0691 34.5492 14.1109 33.4171C12.1291 31.0889 10.2424 28.1849 10.1036 24.8293Z" fill="black"/>
<path d="M26.3356 16.2859V17.1235C26.6313 16.7725 27.2026 16.8443 27.2026 16.8443V18.052C27.2026 18.052 27.1827 18.6452 26.9665 18.9031H27.5854H28.2025C27.9902 18.6472 27.9684 18.052 27.9684 18.052V16.8443C27.9684 16.8443 28.5397 16.7725 28.8333 17.1235V16.2859H27.5854H26.3356Z" fill="black"/>
<path d="M25.8036 11.3192C26.1984 11.6256 26.4265 11.6759 26.4344 11.6818L26.5892 11.7516V10.9626L25.137 10.3655C25.137 10.3674 25.1508 10.823 25.8036 11.3192Z" fill="black"/>
<path d="M29.2577 11.3192C29.9144 10.823 29.9263 10.3655 29.9263 10.3655L28.4741 10.9626V11.7516L28.6269 11.6818C28.6369 11.6759 28.8629 11.6256 29.2577 11.3192Z" fill="black"/>
<path d="M31.8743 8.1071C31.8743 6.91107 29.8131 5.83514 27.5376 5.83514H27.5356H27.5297H27.5237C25.2483 5.83514 23.1871 6.91107 23.1871 8.1071L23.2327 8.40182L24.1412 13.4983L23.2288 14.0159L20.868 15.3632H20.8759C20.8759 15.3632 20.3443 15.6288 20.0982 15.7936C19.1995 16.4042 19.0091 17.294 19.5309 17.6623C19.6598 16.9374 20.2469 16.1774 21.346 16.1774C22.1377 16.1774 22.7407 16.5768 23.2288 17.1758C23.3537 17.327 23.4727 17.4878 23.5838 17.6623C23.7207 17.8814 23.8576 18.0733 23.9945 18.2594H17.9141C18.3604 19.1375 18.7848 20.0681 18.7848 21.0781V34.2293C18.7848 37.4125 21.2905 38.9323 24.0005 38.9323C26.0953 38.9323 26.3771 38.8393 27.5336 39.9637C28.6843 38.8373 28.966 38.9323 31.0628 38.9323C33.7748 38.9323 36.2764 37.4125 36.2764 34.2293V21.0781C36.2764 20.0681 36.7009 19.1375 37.1492 18.2594H31.0669C31.2018 18.0753 31.3386 17.8814 31.4756 17.6623C31.5886 17.4878 31.7056 17.327 31.8287 17.1758C32.3207 16.5748 32.9217 16.1774 33.7133 16.1774C34.8123 16.1774 35.3975 16.9353 35.5285 17.6623C36.0503 17.294 35.8619 16.4042 34.9571 15.7936C34.7151 15.6288 34.1835 15.3632 34.1835 15.3632H34.1914L31.8306 14.0159L30.922 13.4983L31.8306 8.40182L31.8743 8.1071ZM24.0818 8.70033L27.2758 9.75882V14.6615L24.925 13.4499L24.0818 8.70033ZM24.7424 19.1144C25.2661 19.6241 25.7799 19.9402 26.268 20.1147C26.2045 20.3608 26.1211 20.8687 26.3572 21.3747C26.5497 21.7817 26.8989 22.0958 27.4007 22.3052C27.4563 22.8093 27.7817 23.5673 28.6843 23.9026C28.2895 24.2922 27.9046 24.6587 27.7479 24.8079L24.0877 24.7517C24.0044 24.711 23.8635 24.6199 23.8001 24.49C23.7921 24.4725 23.7802 24.4628 23.7742 24.4434L24.3714 24.5384C24.3853 24.5404 24.3972 24.5404 24.4091 24.5404C24.5242 24.5404 24.6254 24.4628 24.6452 24.3466C24.6651 24.2167 24.5758 24.0984 24.4468 24.079L23.7128 23.9666L24.5281 21.2157L23.7564 19.6281L22.5186 20.9075L22.4431 23.7689L21.6119 23.6409C21.4829 23.6157 21.3599 23.7088 21.3381 23.8347C21.3183 23.9608 21.4055 24.079 21.5365 24.1023L21.8857 24.1546C21.7606 24.2244 21.6793 24.2787 21.6694 24.2865L21.598 24.3349L21.5782 24.4202C21.3758 25.2227 21.8341 25.9846 22.3281 26.3257L22.3102 26.4266C22.2903 26.5508 22.3182 26.6709 22.3934 26.7717C22.4649 26.8745 22.576 26.9365 22.6991 26.9578C22.7248 26.9616 22.7526 26.9635 22.7764 26.9635C22.9907 26.9635 23.1771 26.8182 23.2306 26.6069C23.4152 26.6283 23.5838 26.6322 23.6988 26.6322H23.7962L28.5989 27.4792L28.6803 27.4269C29.0632 27.1652 30.5213 26.1262 30.9994 25.783C31.1304 25.8936 31.2771 25.9943 31.4557 26.0777C31.3009 26.5856 31.2909 27.3668 31.904 27.9833H19.6637V21.08C19.6637 20.4112 19.4633 19.7385 19.2273 19.1182H24.7424V19.1144ZM30.678 25.4302C30.192 25.7791 28.9422 26.6709 28.4898 26.9811L24.1254 26.2153C24.1354 26.1766 24.1451 26.1397 24.1551 26.1009C24.2127 25.8799 24.2703 25.5775 24.2742 25.2227L27.9423 25.2809L28.0117 25.2112C28.0673 25.1569 29.2299 24.0596 29.8229 23.4276C29.9639 23.6002 30.1404 23.765 30.3706 23.9104C30.2912 24.3291 30.3249 24.9261 30.678 25.4302ZM23.3716 24.6916C23.4747 24.9029 23.6612 25.0445 23.7901 25.1239C23.7862 25.3216 23.7664 25.6299 23.7128 25.9012C23.7009 25.9614 23.685 26.0176 23.6671 26.0738C23.6571 26.1087 23.6474 26.1378 23.6394 26.161C23.447 26.161 23.068 26.1378 22.7585 26.0273C22.4154 25.9032 21.9035 25.2887 22.0225 24.6121C22.1713 24.5229 22.5145 24.3349 22.8358 24.3349C23.0839 24.333 23.2526 24.4473 23.3716 24.6916ZM22.9173 23.8406L22.9907 21.0936L23.6215 20.4404L24.0183 21.2507L23.2367 23.887L22.9173 23.8406ZM30.6384 38.0813C30.4003 38.0813 30.1801 38.0852 29.9816 38.0929L30.5014 36.513C30.5828 36.2939 30.1721 36.0129 30.0036 35.7666C30.2594 35.9237 30.922 36.2668 31.2415 36.4044C31.2077 36.4548 30.6384 38.0813 30.6384 38.0813ZM32.2691 36.2862L31.9299 38.0153C31.7136 38.0444 31.4835 38.06 31.2474 38.0697L31.6045 36.4063C31.7116 35.9121 30.3526 35.7589 29.6821 34.7877C29.3548 35.1483 28.7379 35.2549 28.1188 35.2549C27.5535 35.2549 26.9881 35.1657 26.6448 35.0998C26.5576 35.0862 26.4743 35.0765 26.393 35.0765C26.1945 35.0765 26.014 35.1366 25.8891 35.3421L25.7898 35.505L23.939 35.0785L23.4787 35.8228C23.4132 35.9431 23.4093 36.0458 23.5143 36.1582L23.6394 36.292C23.5541 36.5557 23.1692 36.953 23.1692 36.953L22.8934 36.6177C22.6753 36.3793 22.7109 35.945 22.939 35.5418L23.6731 34.3302L25.2404 34.5511L24.9963 34.0083C24.669 33.2912 25.167 32.378 25.2204 31.8527C25.2027 32.0117 25.0538 32.0466 24.8793 32.0466C24.7206 32.0466 24.544 32.0175 24.427 32.0175C24.3814 32.0175 24.3417 32.0213 24.3198 32.0368L23.8952 32.2889L23.56 32C23.5204 31.9438 23.5064 31.814 23.6057 31.717L24.3814 30.8679L23.4648 29.823L24.7484 30.4531L25.1392 29.9897C25.2462 30.0925 25.2006 30.3618 25.2006 30.3618C25.6014 30.3716 26.7242 30.9784 26.7838 32.3935C26.7878 32.4362 26.7878 32.4846 26.7878 32.5312C26.7878 32.5312 26.7977 32.5486 26.8174 32.5777C26.8968 32.6844 27.115 32.9577 27.3927 32.9828L29.1664 33.1535H29.1743C29.3687 33.1535 29.7556 32.9305 30.2515 32.9305C30.5213 32.9305 30.8229 32.9984 31.1442 33.1961C31.1442 33.1961 31.3049 33.0721 31.5668 33.0586C31.5866 33.0565 31.6084 33.0565 31.6283 33.0565C32.4238 33.0565 32.7531 33.7583 33.1796 34.3418C33.5011 34.7857 33.9295 35.4448 33.9295 35.4448C33.7708 35.629 33.624 35.7299 33.378 35.7299C33.3106 35.7299 33.2331 35.724 33.1499 35.7085C32.2968 35.5553 32.1738 33.8416 31.6878 33.706C31.6621 33.6982 31.6343 33.6963 31.6105 33.6963C31.4537 33.6963 31.3843 33.8319 31.3843 33.8319C31.6065 34.4155 31.4775 34.652 31.7156 35.1018C31.8942 35.4351 32.2115 35.7104 32.3424 35.8403C32.3424 35.8442 32.3068 36.0962 32.2691 36.2862ZM22.7447 34.65L22.826 34.8497C22.7724 35.0242 22.1574 35.2723 22.1574 35.2723L22.0245 34.9893C21.8836 34.6869 21.9134 34.177 22.342 33.8649L23.3378 33.2717L24.3932 33.4907C24.3734 33.8184 24.5737 34.0627 24.5737 34.0627L23.4667 33.8552L22.8041 34.3031C22.693 34.3786 22.6851 34.5202 22.7447 34.65ZM32.4357 37.9203L32.7393 36.3734C32.7551 36.2823 32.775 36.1757 32.7889 36.0866C32.8742 36.1214 32.9654 36.1504 33.0646 36.168C33.1776 36.1892 33.2828 36.199 33.378 36.199C33.8422 36.199 34.112 35.9604 34.2925 35.7569L34.5267 35.4913L34.3363 35.2006C34.3184 35.1714 33.8977 34.5201 33.5725 34.0742C33.509 33.987 33.4474 33.8998 33.3859 33.8048C33.017 33.2659 32.5547 32.5893 31.6283 32.5893L31.545 32.5912C31.3923 32.6009 31.2613 32.63 31.1561 32.6688C30.8644 32.5351 30.5649 32.4672 30.2535 32.4672C29.8706 32.4672 29.5472 32.5699 29.333 32.6417C29.2715 32.6591 29.2159 32.6785 29.1723 32.6863L27.4404 32.5195C27.4186 32.5157 27.3471 32.475 27.2619 32.3742V32.3664L27.6368 32.2191C27.5317 30.9997 26.3333 30.2494 25.6648 29.9955C25.6351 29.8734 25.5756 29.7513 25.4705 29.6524L25.0974 29.3074L24.7701 29.6912L24.6095 29.8869L22.1852 28.9138L23.7624 30.8484L23.1395 31.7693C22.9113 32.0058 23.1633 32.2423 23.1633 32.2423L23.8059 32.6746L24.4726 32.4323C24.4964 32.4323 24.5163 32.4381 24.5381 32.4401C24.5063 32.5389 24.4647 32.9267 24.4369 33.0352L23.2803 32.8122L22.0641 33.483C21.4393 33.9308 21.354 34.6733 21.5861 35.1811L21.721 35.47L21.9134 35.8771L22.3379 35.7046C22.3439 35.7027 22.3499 35.7008 22.3538 35.6968C22.2011 36.1737 22.2626 36.6273 22.5363 36.926L22.7943 37.2438L23.1374 37.6684L23.5143 37.2729C23.6254 37.1643 23.9846 36.7708 24.0957 36.4335L24.177 36.1757L23.9925 35.9779L23.9628 35.9431L24.169 35.6097L25.6787 35.9566L26.0179 36.0322L26.1984 35.7415L26.2977 35.5825C26.3156 35.5496 26.3215 35.5437 26.3909 35.5437C26.4445 35.5437 26.498 35.5496 26.5556 35.5612C27.1249 35.6658 27.6507 35.7181 28.1169 35.7181C28.5692 35.7181 28.839 35.7008 29.1624 35.596C29.1624 35.596 29.9737 36.4956 30.0016 36.5305L29.5056 38.027L29.4837 38.1181C28.5434 38.1918 28.0851 38.3934 27.5317 38.9343C26.7281 38.155 26.1588 38.0735 23.9984 38.0735C21.4134 38.0735 19.6617 36.5925 19.6617 34.2274V28.4447H35.3975L35.4016 34.2274C35.4035 36.1467 34.2509 37.4842 32.4357 37.9203ZM35.8381 19.1144C35.5979 19.7347 35.3975 20.4074 35.3975 21.0763L35.3995 25.3914C34.4771 25.2402 34.368 24.269 34.364 24.2264L34.3462 24.0286L34.1478 24.0112C33.747 23.9743 33.4812 23.8076 33.2569 23.5943C32.8048 23.1524 32.8027 22.4351 32.8048 22.4293C32.7988 22.4661 32.3068 23.1387 32.8781 23.8735C33.1181 24.1837 33.4653 24.3736 33.9156 24.4493C34.0208 24.9882 34.4314 25.7481 35.3995 25.8644V27.9775H32.6778C31.422 27.295 31.9537 26.0931 31.9794 26.0428L32.0866 25.8141L31.8465 25.7249C30.4875 25.2325 30.8605 23.9065 30.8804 23.8503L30.9359 23.6565L30.7515 23.5711C29.6286 23.0632 29.7813 21.6927 29.7952 21.6365C29.4501 21.9098 29.325 22.4681 29.563 23.0148C29.4342 23.1582 29.2616 23.3327 29.0731 23.5227C27.9106 23.2338 27.8749 22.189 27.8749 22.1405L27.8728 21.9795L27.7201 21.9214C27.2658 21.7567 26.9544 21.5104 26.8016 21.1789C26.629 20.8125 26.6905 20.4287 26.7381 20.2444C26.871 20.2736 27.0039 20.2949 27.1309 20.3045C27.2619 20.3183 27.3968 20.3259 27.5317 20.3259H27.5396H27.5495C27.6844 20.3259 27.8173 20.3183 27.9483 20.3045C28.6724 20.2348 29.4837 19.9305 30.3288 19.1125H35.8381V19.1144ZM31.5966 14.7525L32.6718 15.3632H32.6877L32.9574 15.5164C32.3503 15.6811 31.8861 15.9778 31.4973 16.3673C31.4835 16.379 31.4696 16.3946 31.4557 16.4081C31.3664 16.5012 31.2771 16.6019 31.1938 16.7048C31.178 16.7241 31.1621 16.7454 31.1442 16.7668C31.061 16.8714 30.9835 16.9781 30.9082 17.0905C30.8962 17.1099 30.8823 17.1293 30.8684 17.1466C30.7792 17.2765 30.6939 17.4162 30.6086 17.5596C29.8428 18.8488 28.6208 19.6184 27.5336 19.6204C26.4485 19.6184 25.2265 18.8488 24.4608 17.5596C24.3773 17.42 24.294 17.2843 24.2048 17.1526C24.1868 17.1273 24.171 17.1021 24.1551 17.0808C24.0798 16.9741 24.0044 16.8695 23.927 16.7706C23.9072 16.7435 23.8894 16.7221 23.8695 16.6989C23.7862 16.6 23.7009 16.5012 23.6156 16.4101C23.5977 16.3964 23.5858 16.379 23.568 16.3635C23.1771 15.9738 22.7149 15.6791 22.1058 15.5164L22.3796 15.3632H22.3916L23.4667 14.7525L24.5718 14.1342L27.5237 15.7044L27.5297 15.6986L27.5376 15.7044L30.4896 14.1342L31.5966 14.7525ZM30.1404 13.4517L27.7875 14.6634V9.75882L30.9795 8.70033L30.1404 13.4517ZM27.5317 9.2199L24.0322 7.86869C24.3298 7.18048 25.7025 6.59502 27.5317 6.59312C29.3627 6.59502 30.7356 7.18048 31.0311 7.86869L27.5317 9.2199Z" fill="black"/>
</svg>
