<svg width="42" height="25" viewBox="0 0 42 25" fill="none" xmlns="http://www.w3.org/2000/svg">
<path d="M25.97 4.35559H15.9988V20.6416H25.97V4.35559Z" fill="#FF5F00"/>
<path d="M17.0259 12.5C17.0247 10.9318 17.3801 9.38383 18.0655 7.97331C18.7508 6.56279 19.748 5.32664 20.9816 4.35841C19.4537 3.15767 17.6188 2.411 15.6867 2.20374C13.7545 1.99647 11.8031 2.33699 10.0553 3.18635C8.30749 4.03572 6.83392 5.35967 5.80299 7.00689C4.77205 8.65412 4.22534 10.5582 4.22534 12.5014C4.22534 14.4446 4.77205 16.3487 5.80299 17.9959C6.83392 19.6431 8.30749 20.9671 10.0553 21.8164C11.8031 22.6658 13.7545 23.0063 15.6867 22.799C17.6188 22.5918 19.4537 21.8451 20.9816 20.6444C19.7476 19.6758 18.7502 18.4392 18.0648 17.0282C17.3795 15.6171 17.0242 14.0686 17.0259 12.5Z" fill="#EB001B"/>
<path d="M36.7497 18.9183V18.5845H36.8935V18.5155H36.5511V18.5845H36.6864V18.9183H36.7497ZM37.4142 18.9183V18.5155H37.3106L37.1898 18.8032L37.069 18.5155H36.9654V18.9183H37.0402V18.6133L37.1524 18.8751H37.2301L37.3423 18.6133V18.9183H37.4142Z" fill="#F79E1B"/>
<path d="M37.7393 12.5C37.7393 14.4434 37.1925 16.3475 36.1613 17.9948C35.1302 19.6421 33.6564 20.966 31.9084 21.8153C30.1604 22.6645 28.2087 23.0048 26.2765 22.7972C24.3442 22.5897 22.5093 21.8427 20.9816 20.6415C22.2147 19.6724 23.2116 18.436 23.8971 17.0254C24.5826 15.6148 24.9388 14.0669 24.9388 12.4986C24.9388 10.9302 24.5826 9.38235 23.8971 7.97176C23.2116 6.56116 22.2147 5.32467 20.9816 4.35558C22.5093 3.15446 24.3442 2.40743 26.2765 2.19987C28.2087 1.99231 30.1604 2.3326 31.9084 3.18185C33.6564 4.03109 35.1302 5.35502 36.1613 7.0023C37.1925 8.64958 37.7393 10.5537 37.7393 12.4971V12.5Z" fill="#F79E1B"/>
</svg>
