<svg width="54" height="32" viewBox="0 0 54 32" fill="none" xmlns="http://www.w3.org/2000/svg">
<path fill-rule="evenodd" clip-rule="evenodd" d="M8.31542 9.33555C8.73233 9.33305 9.97138 9.22146 10.4962 10.9928C10.8497 12.186 11.4129 14.1404 12.1857 16.8562H12.5004C13.3292 13.9931 13.8985 12.0386 14.2083 10.9928C14.7386 9.20301 16.0644 9.33558 16.5947 9.33558L20.6861 9.33559V22.0628H16.516V14.5625H16.2364L13.9118 22.0628H10.7743L8.44971 14.5569H8.17008V22.0628H4V9.33559L8.31542 9.33555ZM26.6743 9.33559V16.8415H27.0069L29.8346 10.6694C30.3835 9.44118 31.5534 9.33559 31.5534 9.33559H35.5888V22.0629H31.3316V14.5569H30.999L28.2267 20.729C27.6778 21.9517 26.4525 22.0629 26.4525 22.0629H22.4171V9.33559H26.6743ZM50.3035 15.3837C49.7096 17.0664 47.8448 18.2716 45.7801 18.2716H41.3156V22.0629H37.2673V15.3837H50.3035Z" fill="#0F754E"/>
<path fill-rule="evenodd" clip-rule="evenodd" d="M45.9754 9.33557H37.0551C37.2673 12.1691 39.7075 14.5948 42.2336 14.5948H50.5848C51.0667 12.2398 49.4077 9.33557 45.9754 9.33557Z" fill="url(#paint0_linear_849_299)"/>
<defs>
<linearGradient id="paint0_linear_849_299" x1="50.6667" y1="12.6438" x2="37.0551" y2="12.6438" gradientUnits="userSpaceOnUse">
<stop stop-color="#1F5CD7"/>
<stop offset="1" stop-color="#02AEFF"/>
</linearGradient>
</defs>
</svg>
