<svg width="54" height="32" viewBox="0 0 54 32" fill="none" xmlns="http://www.w3.org/2000/svg">
<path fill-rule="evenodd" clip-rule="evenodd" d="M15.6338 22.5576H11.8374L8.99054 11.6968C8.85542 11.1972 8.56852 10.7555 8.14649 10.5473C7.09328 10.0242 5.9327 9.60789 4.66663 9.39791V8.97977H10.7823C11.6264 8.97977 12.2594 9.60789 12.3649 10.3374L13.842 18.1716L17.6365 8.97977H21.3274L15.6338 22.5576ZM23.4375 22.5576H19.8521L22.8045 8.97977H26.3898L23.4375 22.5576ZM31.0285 12.7412C31.134 12.0099 31.767 11.5918 32.5055 11.5918C33.6661 11.4868 34.9303 11.6968 35.9854 12.2181L36.6184 9.29474C35.5634 8.8766 34.4028 8.66663 33.3496 8.66663C29.8697 8.66663 27.3376 10.5474 27.3376 13.1576C27.3376 15.1433 29.1312 16.1859 30.3973 16.814C31.767 17.4403 32.2945 17.8585 32.189 18.4848C32.189 19.4242 31.134 19.8424 30.0807 19.8424C28.8147 19.8424 27.5486 19.5292 26.3899 19.0061L25.7568 21.9313C27.0229 22.4526 28.3926 22.6626 29.6587 22.6626C33.5606 22.7658 35.9854 20.8868 35.9854 18.0666C35.9854 14.5152 31.0285 14.307 31.0285 12.7412ZM48.5333 22.5576L45.6865 8.97977H42.6286C41.9956 8.97977 41.3625 9.39791 41.1515 10.0242L35.8799 22.5576H39.5708L40.3075 20.5737H44.8424L45.2644 22.5576H48.5333ZM43.1562 12.6363L44.2094 17.7535H41.2571L43.1562 12.6363Z" fill="#172B85"/>
</svg>
