<svg width="45" height="15" viewBox="0 0 45 15" fill="none" xmlns="http://www.w3.org/2000/svg">
<path fill-rule="evenodd" clip-rule="evenodd" d="M11.6338 14.5576H7.83737L4.99054 3.69678C4.85542 3.19719 4.56852 2.75551 4.14649 2.54735C3.09328 2.02422 1.9327 1.60789 0.666626 1.39791V0.979772H6.7823C7.62636 0.979772 8.2594 1.60789 8.3649 2.33737L9.84199 10.1716L13.6365 0.979772H17.3274L11.6338 14.5576ZM19.4375 14.5576H15.8521L18.8045 0.979772H22.3898L19.4375 14.5576ZM27.0285 4.74124C27.134 4.00994 27.767 3.5918 28.5055 3.5918C29.6661 3.48681 30.9303 3.69679 31.9854 4.21811L32.6184 1.29474C31.5634 0.876601 30.4028 0.666626 29.3496 0.666626C25.8697 0.666626 23.3376 2.54735 23.3376 5.15757C23.3376 7.14328 25.1312 8.18592 26.3973 8.81404C27.767 9.44034 28.2945 9.85848 28.189 10.4848C28.189 11.4242 27.134 11.8424 26.0807 11.8424C24.8147 11.8424 23.5486 11.5292 22.3899 11.0061L21.7568 13.9313C23.0229 14.4526 24.3926 14.6626 25.6587 14.6626C29.5606 14.7658 31.9854 12.8868 31.9854 10.0666C31.9854 6.51517 27.0285 6.307 27.0285 4.74124ZM44.5333 14.5576L41.6865 0.979772H38.6286C37.9956 0.979772 37.3625 1.39791 37.1515 2.02422L31.8799 14.5576H35.5708L36.3075 12.5737H40.8424L41.2644 14.5576H44.5333ZM39.1562 4.63626L40.2094 9.7535H37.2571L39.1562 4.63626Z" fill="#172B85"/>
</svg>
